<svg width="54.819" height="54.819" xmlns="http://www.w3.org/2000/svg">
 <g>
  <title>background</title>
  <rect x="-1" y="-1" width="56.819" height="56.819" id="canvas_background" fill="none"/>
 </g>

 <g>
  <title>Layer 1</title>
  <ellipse stroke="null" transform="rotate(-80 10.222452163696289,8.562356948852539) " ry="2.331041" rx="0.985354" id="svg_53" cy="8.562357" cx="10.222452" stroke-opacity="null" stroke-width="null" fill="#66a328"/>
  <ellipse stroke="null" transform="rotate(25 13.559664726257322,6.917627334594725) " ry="2.375148" rx="1.02941" id="svg_55" cy="6.917628" cx="13.559663" stroke-opacity="null" stroke-width="null" fill="#66a328"/>
  <ellipse stroke="null" transform="rotate(-18 11.40921592712402,6.695376396179197) " ry="2.35072" rx="1.047211" id="svg_52" cy="6.695376" cx="11.409216" stroke-opacity="null" stroke-width="null" fill="#66a328"/>
  <path d="m32.82907,7.204902c-0.134,-1.948 -1.753,-3.488 -3.735,-3.488c-0.006,0 -0.011,0.001 -0.017,0.001c0.035,-0.295 0.015,-0.607 -0.08,-0.932c-0.268,-0.914 -1.072,-1.616 -2.018,-1.729c-0.776,-0.092 -1.488,0.186 -1.987,0.679c-0.475,-0.429 -1.097,-0.697 -1.787,-0.697c-1.479,0 -2.677,1.199 -2.677,2.677c0,0.005 0.001,0.009 0.001,0.014c-1.797,0.136 -3.214,1.635 -3.214,3.467c0,0.28 0.037,0.551 0.099,0.812c-2.139,0.089 -3.847,1.847 -3.847,4.008c0,0.732 0.199,1.416 0.541,2.007c-0.657,0.54 -1.077,1.359 -1.077,2.276c0,0.838 0.355,1.589 0.917,2.124c2.412,-1.971 4.946,4.621 7.93,9.884c0.991,1.748 11.698,-0.114 12.551,0.972c0.972,-0.874 1.6,-16.094 1.627,-17.431c0.042,-2.145 -1.32,-3.975 -3.227,-4.644z" fill="#88c057" id="svg_4"/>
  <path d="m10.94894,19.85522c-0.335,0 -0.663,-0.169 -0.852,-0.476c-0.614,-0.995 -1.761,-2.146 -3.078,-2.104c-0.56,-0.03 -1.014,-0.418 -1.03,-0.969c-0.017,-0.553 0.417,-1.014 0.969,-1.031c2.107,-0.063 3.904,1.534 4.841,3.055c0.29,0.47 0.144,1.086 -0.326,1.376c-0.163,0.101 -0.345,0.149 -0.524,0.149z" fill="#436B1C" id="svg_2"/>
  <path d="m32.445098,27.292878l0.713,-0.427c1.32,-0.792 2.968,-0.792 4.287,0l0.713,0.427c1.32,0.792 2.968,0.792 4.287,0l2.015,-0.896c0.296,-0.826 0.502,-1.424 0.584,-1.689c1.88,-6.047 3.091,-12.414 3.256,-18.765c0.066,-2.554 -2.046,-6.537 -5.555,-4.727c-3.449,1.778 -5.919,8.597 -7.655,11.835c-2.466,4.601 -4.416,9.605 -5.805,14.704c1.058,0.267 2.196,0.116 3.16,-0.462z" fill="#EEAF4B" id="svg_5"/>
  <path d="m35.592,24.356c-0.106,0 -0.215,-0.017 -0.321,-0.053c-0.523,-0.178 -0.803,-0.746 -0.625,-1.269c0.667,-1.962 2.809,-3.012 4.768,-2.352c0.919,0.313 1.92,-0.181 2.232,-1.1c0.177,-0.523 0.743,-0.805 1.269,-0.626c0.523,0.178 0.803,0.746 0.625,1.269c-0.666,1.963 -2.806,3.017 -4.768,2.352c-0.918,-0.312 -1.919,0.183 -2.232,1.1c-0.143,0.418 -0.532,0.679 -0.948,0.679z" fill="#A46F3E" id="svg_7"/>
  <path d="m37.957,17.389c-0.106,0 -0.215,-0.017 -0.321,-0.053c-0.523,-0.178 -0.803,-0.746 -0.625,-1.269c0.323,-0.951 0.997,-1.72 1.897,-2.164c0.9,-0.444 1.919,-0.511 2.871,-0.188c0.921,0.314 1.92,-0.181 2.232,-1.101c0.177,-0.524 0.745,-0.805 1.268,-0.626c0.523,0.178 0.803,0.746 0.625,1.269c-0.666,1.964 -2.806,3.016 -4.768,2.353c-0.445,-0.152 -0.923,-0.121 -1.344,0.087s-0.736,0.567 -0.888,1.013c-0.141,0.417 -0.53,0.679 -0.947,0.679z" fill="#A46F3E" id="svg_8"/>
  <path d="m40.323,10.421c-0.106,0 -0.215,-0.017 -0.322,-0.053c-0.523,-0.178 -0.803,-0.746 -0.625,-1.269c0.584,-1.722 2.463,-2.646 4.185,-2.064c0.33,0.112 0.682,0.09 0.993,-0.063c0.311,-0.153 0.544,-0.419 0.656,-0.748c0.177,-0.523 0.744,-0.804 1.269,-0.626c0.523,0.178 0.803,0.746 0.625,1.269c-0.284,0.835 -0.875,1.51 -1.665,1.899c-0.791,0.39 -1.686,0.447 -2.521,0.164c-0.678,-0.231 -1.418,0.134 -1.648,0.813c-0.142,0.416 -0.531,0.678 -0.947,0.678z" fill="#A46F3E" id="svg_9"/>
  <path d="m23.37,14.095c-0.945,1.257 -2.436,2.745 -1.862,5.373l1.544,7.065c0,0 0.001,0 0.001,0l0.713,-0.427c1.32,-0.792 2.968,-0.792 4.287,0l0.713,0.427c0.58,0.348 1.127,0.463 1.127,0.463c1.042,-3.823 2.399,-7.593 4.052,-11.179c-0.774,-1.936 -2.427,-2.584 -3.627,-3.247c-0.007,-0.004 -0.014,-0.008 -0.02,-0.011c-0.759,-0.435 -0.806,-1.474 -0.235,-2.136c0.225,-0.261 0.329,-0.62 0.251,-0.98l-0.121,-0.552c-0.133,-0.608 -0.739,-0.996 -1.346,-0.863l-6.077,1.326c-0.608,0.133 -0.996,0.739 -0.863,1.346l0.121,0.552c0.08,0.368 0.334,0.653 0.656,0.792c0.739,0.319 1.19,1.144 0.812,1.855c-0.036,0.067 -0.078,0.132 -0.126,0.196z" fill="#DAE7EF" id="svg_11"/>
  <ellipse canvas-opacity="1" transform="rotate(150 17.612777709960938,18.087514877319332) " stroke="null" ry="11.565418" rx="4" id="svg_26" cy="18.087516" cx="17.612778" stroke-opacity="null" stroke-width="null" fill="#ff7f00"/>
  <path d="m29.746,10.899l-6.879,1.503c-0.759,0.166 -1.517,-0.32 -1.683,-1.079l-0.099,-0.452c-0.166,-0.759 0.32,-1.517 1.079,-1.683l6.879,-1.503c0.759,-0.166 1.517,0.32 1.683,1.079l0.099,0.452c0.166,0.76 -0.32,1.517 -1.079,1.683z" fill="#FFFFFF" id="svg_12"/>
  <path d="m46.76897,25.207l-1.745,25.029c-0.128,2.499 -2.191,4.459 -4.693,4.459l-28.071,0c-2.502,0 -4.565,-1.96 -4.693,-4.459l-1.703,-24.208c-0.029,-0.569 0.588,-0.94 1.077,-0.647l1.345,0.807c1.545,0.927 3.475,0.927 5.02,0l0.346,-0.208c1.32,-0.792 2.968,-0.792 4.287,0l0.713,0.428c1.32,0.792 2.968,0.792 4.287,0l0.713,-0.428c1.32,-0.792 2.968,-0.792 4.287,0l0.713,0.428c1.32,0.792 2.968,0.792 4.287,0l0.713,-0.428c1.32,-0.792 2.968,-0.792 4.287,0l0.713,0.428c1.32,0.792 2.968,0.792 4.287,0l3.387,-1.505c0.215,-0.096 0.455,0.069 0.443,0.304z" fill="#f7d59b" id="svg_13"/>
  <path d="m28.333912,47.718781l-11,0c-0.552,0 -1,-0.447 -1,-1s0.448,-1 1,-1l11,0c0.552,0 1,0.447 1,1s-0.448,1 -1,1z" fill="#e0a950" id="svg_16"/>
  <path d="m13.32168,47.718781l-2,0c-0.552,0 -1,-0.447 -1,-1s0.448,-1 1,-1l2,0c0.552,0 1,0.447 1,1s-0.448,1 -1,1z" fill="#e0a950" id="svg_17"/>
  <path d="m28.333912,43.499985l-11,0c-0.552,0 -1,-0.447 -1,-1s0.448,-1 1,-1l11,0c0.552,0 1,0.44701 1,1s-0.448,1 -1,1z" fill="#e0a950" id="svg_33"/>
  <path d="m13.321681,43.499985l-2,0c-0.552,0 -1,-0.447 -1,-1s0.448,-1 1,-1l2,0c0.552,0 1,0.447 1,1s-0.448,1 -1,1z" fill="#e0a950" id="svg_34"/>
  <path d="m13.446681,39.33423l-2,0c-0.552,0 -1,-0.447 -1,-1s0.448,-1 1,-1l2,0c0.552,0 1,0.447 1,1s-0.448,1 -1,1z" fill="#e0a950" id="svg_35"/>
  <path d="m28.458914,39.33423l-11,0c-0.552,0 -1,-0.447 -1,-1s0.448,-1 1,-1l11,0c0.552,0 1,0.447 1,1s-0.448,1 -1,1z" fill="#dda74f" id="svg_36"/>
  <path d="m28.333913,35.168046l-11,0c-0.552,0 -1,-0.447 -1,-1s0.448,-1 1,-1l11,0c0.552,0 1,0.447 1,1s-0.448,1 -1,1z" fill="#e0a950" id="svg_37"/>
  <path d="m13.321681,35.168046l-2,0c-0.552,0 -1,-0.447 -1,-1s0.448,-1 1,-1l2,0c0.552,0 1,0.447 1,1s-0.448,1 -1,1z" fill="#dda74f" id="svg_38"/>
  <polyline stroke-linecap="round" id="svg_15" points="16.948053673867925,11.810641945400189 17.053193839176494,11.70550178009162 17.053193839176494,11.70550178009162 " stroke-opacity="null" stroke-width="null" stroke="null" fill="none"/>
  <polyline stroke="null" stroke-linecap="round" id="svg_48" points="14.34693431854248,13.364115715026855 14.34693431854248,13.364115715026855 " stroke-opacity="null" stroke-width="null" fill="none"/>
  <ellipse transform="rotate(150 14.721936225891113,12.864112854003904) " ry="0.750004" rx="2.750014" id="svg_57" cy="12.864113" cx="14.721936" stroke-opacity="null" stroke-width="null" stroke="null" fill="#e8770d"/>
  <ellipse transform="rotate(150 16.596946716308594,15.739128112792965) " ry="0.750004" rx="2.750014" id="svg_58" cy="15.739128" cx="16.596946" stroke-opacity="null" stroke-width="null" stroke="null" fill="#e8770d"/>
  <ellipse transform="rotate(150 18.53445625305176,19.11414527893066) " ry="0.750004" rx="2.750014" id="svg_59" cy="19.114146" cx="18.534456" stroke-opacity="null" stroke-width="null" stroke="null" fill="#e8770d"/>
  <path d="m7.090895,25.6002l1.345,0.807c1.545,0.927 3.475,0.927 5.02,0l0.346,-0.208c1.32,-0.792 2.968,-0.792 4.287,0l0.713,0.427c0.775,0.465 1.663,0.649 2.531,0.568c0.64,-2.067 0.425,-4.651 -0.567,-6.4c-3.336,-5.885 -6.111,-4.686 -8.781,-2.131c-0.512,0.49 -1.138,0.849 -1.82,1.044c-2.928,0.837 -5.089,2.206 -3.86,5.934c0.217,-0.158 0.519,-0.201 0.786,-0.041z" fill="#ed3f32" id="svg_6"/>
 </g>
</svg>